<svg xmlns="http://www.w3.org/2000/svg" viewBox="0 0 512 512"><path fill="#000" d="M 512.00 190.09 L 512.00 193.66 Q 510.50 203.14 501.37 207.12 Q 479.48 216.67 464.36 223.17 A 0.54 0.53 78.2 0 0 464.04 223.66 Q 464.01 241.98 464.03 407.50 C 464.03 425.40 440.78 430.29 433.15 414.02 Q 431.94 411.45 432.00 404.79 Q 432.04 399.80 432.02 237.73 A 0.36 0.35 -12.0 0 0 431.52 237.41 L 416.52 243.91 A 0.83 0.82 78.8 0 0 416.02 244.67 Q 416.02 292.52 416.02 342.75 C 416.03 396.46 355.29 425.16 311.29 434.31 Q 263.22 444.32 213.98 436.76 C 176.47 431.00 134.14 415.46 110.18 384.15 Q 95.81 365.38 95.91 341.55 Q 96.10 297.02 95.94 244.35 A 0.44 0.43 -78.9 0 0 95.68 243.95 Q 53.19 225.54 10.81 207.17 Q 1.61 203.19 0.00 193.84 L 0.00 190.17 Q 1.59 180.80 9.76 177.26 Q 97.42 139.28 249.97 73.17 C 255.49 70.78 259.91 72.24 265.83 74.80 Q 386.04 126.89 500.86 176.64 Q 510.38 180.77 512.00 190.09 Z M 455.33 191.76 L 256.74 105.73 A 1.77 1.74 44.5 0 0 255.35 105.73 L 56.74 191.78 A 0.23 0.23 0.0 0 0 56.74 192.20 L 255.50 278.30 A 1.41 1.38 -44.4 0 0 256.63 278.30 L 381.51 224.19 A 0.21 0.21 0.0 0 0 381.46 223.79 Q 322.57 216.40 254.12 207.86 C 248.22 207.13 243.12 203.24 241.06 197.55 C 236.83 185.86 246.26 174.65 258.51 176.18 Q 261.46 176.55 439.22 198.77 A 2.64 2.63 36.4 0 0 440.62 198.56 L 455.33 192.19 A 0.24 0.23 45.3 0 0 455.33 191.76 Z M 255.98 408.00 C 284.53 408.01 313.25 403.28 339.37 391.89 C 358.41 383.59 383.99 366.77 384.00 343.25 Q 384.01 330.80 384.02 258.51 A 0.34 0.33 78.1 0 0 383.55 258.20 Q 334.44 279.50 262.41 310.66 Q 259.39 311.97 256.00 311.97 Q 252.60 311.97 249.59 310.66 Q 177.57 279.47 128.47 258.14 A 0.34 0.33 -78.1 0 0 128.00 258.45 Q 127.98 330.74 127.98 343.19 C 127.98 366.71 153.56 383.54 172.59 391.86 C 198.71 403.26 227.42 407.99 255.98 408.00 Z"/></svg>
