<svg xmlns="http://www.w3.org/2000/svg" viewBox="0 0 512 512"><path fill="#000" d="M 512.00 115.75 L 512.00 331.88 Q 509.95 341.29 500.25 341.31 Q 481.64 341.34 476.03 341.34 Q 464.44 341.34 459.59 339.98 Q 445.52 336.06 436.20 324.10 A 0.50 0.49 -33.9 0 0 435.57 323.98 L 409.47 338.42 A 0.90 0.90 0.0 0 0 409.00 339.26 Q 409.96 359.94 392.96 371.75 Q 383.65 378.22 372.15 377.89 A 0.91 0.89 13.5 0 0 371.33 378.38 C 363.60 394.08 345.24 402.04 328.28 399.29 A 0.85 0.84 18.1 0 0 327.39 399.74 C 318.48 417.18 300.96 426.14 281.73 419.82 A 1.12 1.11 35.6 0 0 280.72 419.98 C 268.58 429.00 250.39 427.86 236.03 422.72 Q 224.38 418.55 218.04 413.99 Q 177.39 384.75 136.44 351.04 Q 118.66 336.40 106.93 327.52 Q 77.19 305.00 75.66 303.90 A 0.40 0.40 0.0 0 0 75.13 303.96 Q 63.93 317.21 47.46 319.60 Q 44.64 320.01 30.01 320.01 Q 22.37 320.01 12.51 320.00 Q 2.13 319.99 0.00 310.61 L 0.00 94.53 C 1.39 87.73 7.83 83.61 14.47 86.02 Q 67.54 105.35 95.27 115.37 Q 106.51 119.44 110.87 122.50 Q 127.40 134.12 129.38 155.62 A 0.12 0.12 0.0 0 0 129.51 155.73 L 213.24 149.58 A 1.59 1.57 24.8 0 0 214.07 149.28 Q 222.42 143.18 228.53 139.74 Q 266.54 118.31 306.71 136.38 Q 307.08 136.54 324.08 144.60 Q 353.33 158.46 383.97 166.90 A 0.52 0.52 0.0 0 0 384.60 166.55 Q 389.03 152.71 400.49 144.21 Q 405.01 140.86 419.71 135.62 Q 436.08 129.78 498.44 107.03 A 3.98 3.92 -56.7 0 1 499.51 106.80 Q 509.36 106.00 512.00 115.75 Z M 21.84 111.40 A 0.37 0.37 0.0 0 0 21.34 111.75 L 21.34 298.23 A 0.45 0.45 0.0 0 0 21.80 298.68 Q 30.57 298.59 34.94 298.70 Q 44.09 298.93 47.97 297.66 Q 58.21 294.32 61.92 284.43 Q 100.84 180.88 106.75 164.78 C 109.88 156.27 107.02 146.97 100.26 141.16 Q 97.56 138.84 90.22 136.23 Q 83.96 134.01 21.84 111.40 Z M 490.15 132.75 Q 428.04 155.36 421.78 157.58 Q 414.44 160.19 411.74 162.51 C 404.98 168.31 402.12 177.61 405.25 186.12 Q 411.16 202.22 450.08 305.76 Q 453.79 315.65 464.03 318.99 Q 467.91 320.26 477.06 320.03 Q 481.43 319.92 490.20 320.01 A 0.45 0.45 0.0 0 0 490.66 319.56 L 490.65 133.10 A 0.37 0.37 0.0 0 0 490.15 132.75 Z M 426.61 304.08 Q 386.23 196.30 385.34 193.92 Q 384.82 192.54 384.24 189.80 A 0.98 0.97 2.1 0 0 383.54 189.06 Q 352.65 180.71 323.25 167.74 C 306.25 160.25 292.32 151.03 275.05 149.66 C 250.31 147.70 228.88 163.13 211.86 179.16 C 201.99 188.45 193.72 197.21 186.87 208.59 C 183.66 213.93 179.24 223.56 182.50 229.13 Q 185.32 233.93 190.55 234.50 C 202.74 235.80 218.05 228.96 225.06 219.15 C 227.16 216.21 229.70 213.89 232.40 213.58 C 243.82 212.28 251.16 209.75 259.70 204.93 C 264.60 202.17 269.90 201.70 273.65 205.33 C 303.29 234.04 343.43 263.11 378.11 295.38 Q 390.51 306.92 400.08 318.78 A 0.48 0.48 0.0 0 0 400.68 318.90 L 426.38 304.68 A 0.49 0.48 -24.2 0 0 426.61 304.08 Z M 187.40 172.68 L 124.97 177.77 A 0.38 0.37 6.9 0 0 124.64 178.02 L 85.05 283.61 A 0.68 0.66 29.8 0 0 85.27 284.38 C 106.32 300.33 123.72 312.87 141.94 328.03 C 168.44 350.09 195.07 370.64 223.85 391.97 Q 232.04 398.04 236.96 400.18 C 244.94 403.65 252.66 406.11 260.93 405.03 A 0.26 0.26 0.0 0 0 261.08 404.59 Q 238.88 383.16 217.22 359.81 C 209.49 351.47 217.76 338.59 228.63 342.41 Q 230.93 343.22 234.80 347.38 Q 246.70 360.18 261.93 375.56 Q 277.59 391.37 284.18 396.68 Q 294.77 405.23 304.79 395.44 Q 307.58 392.72 308.77 388.81 A 0.86 0.85 31.1 0 0 308.55 387.94 Q 285.44 366.04 261.47 340.21 Q 258.22 336.71 257.54 334.94 C 254.05 325.84 263.14 317.75 271.91 321.33 Q 273.82 322.12 278.26 326.90 Q 294.23 344.11 310.35 360.15 Q 321.14 370.87 328.16 376.58 C 334.76 381.94 350.18 376.14 352.17 368.04 A 0.91 0.89 -61.1 0 0 351.93 367.17 Q 324.35 340.44 293.66 308.31 Q 290.09 304.58 289.46 302.76 C 286.90 295.42 292.76 287.39 300.73 288.52 Q 304.75 289.09 306.86 291.30 Q 333.09 318.80 359.52 344.88 Q 367.03 352.29 371.05 355.45 C 375.42 358.89 382.60 353.56 385.29 350.05 C 388.44 345.95 388.91 340.88 386.23 336.41 C 383.19 331.33 379.26 326.61 375.14 322.38 Q 360.42 307.29 344.86 294.16 Q 325.98 278.24 287.25 246.12 Q 275.79 236.62 265.17 226.62 A 0.75 0.75 0.0 0 0 264.33 226.50 Q 253.19 232.19 241.21 233.90 A 1.37 1.36 -72.7 0 0 240.40 234.33 Q 225.26 251.21 202.75 255.20 C 187.16 257.96 172.83 253.98 164.21 240.20 C 155.91 226.91 161.33 209.58 168.58 197.54 Q 176.42 184.52 187.62 173.15 A 0.28 0.28 0.0 0 0 187.40 172.68 Z"/></svg>
