<svg xmlns="http://www.w3.org/2000/svg" viewBox="0 0 512 512"><path fill="#000" d="M 256.01 42.69 Q 305.80 42.69 309.25 42.75 C 326.90 43.03 341.02 56.40 341.29 74.01 Q 341.38 80.54 341.34 84.86 A 0.47 0.47 0.0 0 0 341.81 85.34 Q 389.46 85.36 390.69 85.32 Q 397.67 85.10 400.06 86.75 C 404.88 90.07 405.36 93.35 405.36 99.67 Q 405.33 128.11 405.34 191.62 A 0.37 0.37 0.0 0 0 405.71 191.99 Q 448.02 192.05 453.45 191.97 Q 461.70 191.84 463.81 193.25 C 468.48 196.39 469.35 199.45 469.35 205.53 Q 469.30 439.25 469.37 453.75 Q 469.41 461.83 467.97 463.97 C 464.87 468.59 461.85 469.27 455.75 469.29 Q 434.08 469.34 256.00 469.34 Q 77.92 469.33 56.24 469.28 C 50.14 469.26 47.12 468.58 44.02 463.96 Q 42.58 461.82 42.62 453.74 Q 42.69 439.24 42.66 205.52 C 42.66 199.44 43.53 196.38 48.20 193.24 Q 50.31 191.83 58.56 191.96 Q 63.99 192.04 106.30 191.98 A 0.37 0.37 0.0 0 0 106.67 191.61 Q 106.68 128.10 106.65 99.66 C 106.65 93.34 107.13 90.06 111.95 86.74 Q 114.34 85.09 121.32 85.31 Q 122.55 85.35 170.20 85.34 A 0.47 0.47 0.0 0 0 170.67 84.86 Q 170.63 80.54 170.72 74.01 C 170.99 56.40 185.11 43.03 202.76 42.74 Q 206.22 42.69 256.01 42.69 Z M 319.9070 74.6784 A 10.79 10.79 0.0 0 0 309.0982 63.9072 L 202.6784 64.0930 A 10.79 10.79 0.0 0 0 191.9072 74.9018 L 192.0930 181.3216 A 10.79 10.79 0.0 0 0 202.9018 192.0928 L 309.3216 191.9070 A 10.79 10.79 0.0 0 0 320.0928 181.0982 L 319.9070 74.6784 Z M 256.00 213.34 Q 211.98 213.34 211.92 213.34 Q 198.22 213.64 193.23 211.94 C 178.90 207.05 170.52 194.94 170.66 180.00 Q 170.66 179.78 170.66 106.99 A 0.33 0.32 90.0 0 0 170.34 106.66 L 128.60 106.66 A 0.60 0.60 0.0 0 0 128.00 107.26 L 128.00 447.31 A 0.69 0.69 0.0 0 0 128.69 448.00 L 202.28 448.00 A 0.38 0.38 0.0 0 0 202.66 447.62 Q 202.68 369.00 202.65 365.80 C 202.58 360.05 203.39 356.35 207.96 353.41 Q 210.35 351.87 218.30 351.93 Q 228.60 352.00 256.00 352.00 Q 283.40 352.00 293.71 351.93 Q 301.66 351.87 304.05 353.41 C 308.62 356.35 309.43 360.05 309.36 365.80 Q 309.33 369.00 309.35 447.62 A 0.38 0.38 0.0 0 0 309.73 448.00 L 383.32 447.99 A 0.69 0.69 0.0 0 0 384.01 447.30 L 384.00 107.25 A 0.60 0.60 0.0 0 0 383.40 106.65 L 341.66 106.66 A 0.33 0.32 90.0 0 0 341.34 106.99 Q 341.34 179.78 341.34 180.00 C 341.48 194.94 333.10 207.05 318.77 211.94 Q 313.78 213.64 300.08 213.34 Q 300.02 213.34 256.00 213.34 Z M 106.66 213.81 A 0.49 0.49 0.0 0 0 106.17 213.32 L 64.49 213.32 A 0.49 0.49 0.0 0 0 64.00 213.81 L 64.00 447.49 A 0.49 0.49 0.0 0 0 64.49 447.98 L 106.17 447.98 A 0.49 0.49 0.0 0 0 106.66 447.49 L 106.66 213.81 Z M 448.00 213.75 A 0.41 0.41 0.0 0 0 447.59 213.34 L 405.75 213.34 A 0.41 0.41 0.0 0 0 405.34 213.75 L 405.34 447.59 A 0.41 0.41 0.0 0 0 405.75 448.00 L 447.59 448.00 A 0.41 0.41 0.0 0 0 448.00 447.59 L 448.00 213.75 Z M 288.00 373.88 A 0.54 0.54 0.0 0 0 287.46 373.34 L 224.54 373.34 A 0.54 0.54 0.0 0 0 224.00 373.88 L 224.00 447.46 A 0.54 0.54 0.0 0 0 224.54 448.00 L 287.46 448.00 A 0.54 0.54 0.0 0 0 288.00 447.46 L 288.00 373.88 Z"/><path fill="#000" d="M 256.00 85.37 Q 259.13 85.37 261.72 87.06 C 265.75 89.69 266.69 93.16 266.68 98.20 Q 266.66 107.56 266.65 116.91 Q 266.65 117.06 266.79 117.20 Q 266.94 117.34 267.08 117.34 Q 276.43 117.33 285.79 117.31 C 290.83 117.30 294.30 118.24 296.94 122.27 Q 298.63 124.87 298.63 128.00 Q 298.63 131.13 296.94 133.72 C 294.30 137.75 290.83 138.69 285.79 138.68 Q 276.43 138.66 267.08 138.65 Q 266.94 138.65 266.79 138.80 Q 266.65 138.94 266.65 139.08 Q 266.66 148.43 266.68 157.79 C 266.69 162.83 265.75 166.30 261.72 168.94 Q 259.13 170.63 256.00 170.63 Q 252.86 170.63 250.27 168.94 C 246.24 166.30 245.30 162.83 245.31 157.79 Q 245.33 148.43 245.34 139.08 Q 245.34 138.94 245.20 138.80 Q 245.05 138.65 244.91 138.65 Q 235.56 138.66 226.20 138.68 C 221.16 138.69 217.69 137.75 215.06 133.72 Q 213.37 131.13 213.37 128.00 Q 213.37 124.87 215.06 122.27 C 217.69 118.24 221.16 117.30 226.20 117.31 Q 235.56 117.33 244.91 117.34 Q 245.05 117.34 245.20 117.20 Q 245.34 117.05 245.34 116.91 Q 245.33 107.56 245.31 98.20 C 245.30 93.16 246.24 89.69 250.27 87.06 Q 252.87 85.37 256.00 85.37 Z"/><rect fill="#000" x="170.82" y="245.42" width="42.36" height="21.16" rx="10.07"/><rect fill="#000" x="234.82" y="245.42" width="42.36" height="21.16" rx="10.07"/><rect fill="#000" x="298.82" y="245.42" width="42.36" height="21.16" rx="10.07"/><rect fill="#000" x="-21.18" y="-10.59" transform="translate(192.00,309.33) rotate(-0.1)" width="42.36" height="21.18" rx="10.07"/><rect fill="#000" x="-21.18" y="-10.59" transform="translate(256.00,309.33) rotate(-0.1)" width="42.36" height="21.18" rx="10.07"/><rect fill="#000" x="-21.18" y="-10.59" transform="translate(320.00,309.33) rotate(-0.1)" width="42.36" height="21.18" rx="10.07"/></svg>
