<svg xmlns="http://www.w3.org/2000/svg" viewBox="0 0 512 512"><path fill="#000" d="M 367.98 134.69 A 111.98 111.98 0.0 0 1 256.00 246.67 A 111.98 111.98 0.0 0 1 144.02 134.69 A 111.98 111.98 0.0 0 1 256.00 22.71 A 111.98 111.98 0.0 0 1 367.98 134.69 Z M 335.99 134.69 A 79.99 79.99 0.0 0 0 256.00 54.70 A 79.99 79.99 0.0 0 0 176.01 134.69 A 79.99 79.99 0.0 0 0 256.00 214.68 A 79.99 79.99 0.0 0 0 335.99 134.69 Z"/><path fill="#000" d="M 64.73 438.71 Q 133.91 438.75 249.74 438.69 Q 259.46 438.69 262.12 439.86 C 278.47 447.02 273.25 470.77 255.25 470.75 Q 203.72 470.69 49.00 470.75 C 39.55 470.75 31.98 464.07 32.01 454.50 C 32.05 435.84 31.13 418.88 33.36 402.90 C 43.30 331.95 103.53 279.31 175.00 278.80 Q 204.37 278.59 256.25 278.76 C 268.20 278.80 275.39 291.53 270.19 301.96 C 267.59 307.18 261.97 310.67 256.25 310.69 Q 252.93 310.70 175.00 310.73 Q 156.15 310.74 138.07 317.35 C 94.55 333.28 65.91 372.69 64.07 419.25 Q 63.82 425.44 64.11 438.10 A 0.63 0.62 89.0 0 0 64.73 438.71 Z"/><path fill="#000" d="M 372.18 291.14 C 372.60 291.14 372.25 291.18 372.41 291.07 Q 395.38 275.69 421.27 279.48 C 462.69 285.54 489.10 327.38 477.65 367.88 Q 474.25 379.90 466.87 390.29 Q 462.37 396.63 449.53 408.17 Q 447.97 409.57 383.40 469.65 Q 378.52 474.20 372.17 474.20 Q 365.82 474.20 360.93 469.65 Q 296.37 409.56 294.81 408.16 Q 281.97 396.62 277.47 390.28 Q 270.10 379.89 266.70 367.87 C 255.25 327.37 281.66 285.53 323.08 279.48 Q 348.97 275.69 371.94 291.07 C 372.10 291.18 371.75 291.14 372.18 291.14 Z M 372.19 436.23 Q 372.38 436.23 372.46 436.14 Q 420.71 391.24 429.39 383.20 Q 437.14 376.02 438.85 374.05 C 458.43 351.42 445.92 314.85 415.75 310.97 Q 403.58 309.40 391.97 316.49 C 384.55 321.02 381.66 328.32 372.17 328.32 C 362.69 328.32 359.79 321.03 352.37 316.50 Q 340.76 309.41 328.59 310.98 C 298.42 314.87 285.92 351.44 305.51 374.07 Q 307.22 376.04 314.97 383.22 Q 323.65 391.25 371.91 436.14 Q 372.00 436.23 372.19 436.23 Z"/></svg>
