<?xml version="1.0" encoding="UTF-8" standalone="no"?>
<!DOCTYPE svg PUBLIC "-//W3C//DTD SVG 1.1//EN" "http://www.w3.org/Graphics/SVG/1.1/DTD/svg11.dtd">
<svg xmlns="http://www.w3.org/2000/svg" version="1.1" viewBox="0.00 0.00 1173.00 222.00">
<path fill="#38b000" d="
  M 310.28 222.00
  L 302.04 222.00
  Q 267.51 220.41 241.42 200.86
  C 178.84 153.99 184.06 52.29 253.64 14.19
  Q 283.20 -2.01 317.76 1.44
  C 368.63 6.52 407.47 45.62 413.89 96.22
  C 422.16 161.29 377.00 219.53 310.28 222.00
  Z
  M 376.78 110.83
  A 70.43 70.43 0.0 0 0 306.35 40.40
  A 70.43 70.43 0.0 0 0 235.92 110.83
  A 70.43 70.43 0.0 0 0 306.35 181.26
  A 70.43 70.43 0.0 0 0 376.78 110.83
  Z"
/>
<path fill="#38b000" d="
  M 480.61 215.24
  L 438.03 215.24
  A 0.33 0.33 0.0 0 1 437.70 214.91
  L 437.70 55.26
  A 4.34 4.26 -32.6 0 1 438.13 53.39
  C 454.05 20.61 486.69 5.36 522.15 6.50
  C 541.94 7.14 561.75 14.63 576.48 28.25
  A 0.50 0.48 43.3 0 1 576.51 28.94
  L 546.94 59.81
  A 0.46 0.46 0.0 0 1 546.30 59.83
  Q 538.52 52.65 528.17 50.88
  C 511.63 48.06 492.64 51.67 481.80 65.35
  A 2.40 2.37 -26.2 0 0 481.29 66.82
  L 481.29 214.56
  A 0.68 0.68 0.0 0 1 480.61 215.24
  Z"
/>
<path fill="#38b000" d="
  M 867.17 214.58
  A 0.68 0.68 0.0 0 1 866.49 215.26
  L 823.90 215.25
  A 0.33 0.33 0.0 0 1 823.57 214.92
  L 823.61 55.25
  A 4.34 4.26 -32.6 0 1 824.04 53.38
  C 839.97 20.60 872.62 5.36 908.09 6.51
  C 927.88 7.15 947.69 14.65 962.42 28.27
  A 0.50 0.48 43.4 0 1 962.45 28.96
  L 932.87 59.83
  A 0.46 0.46 0.0 0 1 932.23 59.85
  Q 924.45 52.67 914.10 50.89
  C 897.55 48.07 878.56 51.67 867.72 65.35
  A 2.40 2.37 -26.2 0 0 867.21 66.82
  L 867.17 214.58
  Z"
/>
<path fill="#38b000" d="
  M 745.97 195.56
  Q 702.95 225.63 651.28 210.81
  Q 617.78 201.21 597.44 174.30
  Q 563.15 128.93 582.28 75.19
  Q 593.23 44.42 622.09 25.07
  Q 625.66 22.67 628.37 21.50
  C 631.22 20.27 634.22 18.41 636.95 17.17
  Q 676.67 -0.90 719.10 13.34
  Q 757.18 26.12 777.15 62.01
  Q 785.39 76.81 788.53 93.95
  Q 790.07 102.38 790.03 117.41
  Q 789.91 155.53 790.01 214.91
  A 0.34 0.34 0.0 0 1 789.67 215.25
  L 747.09 215.25
  A 0.58 0.57 -0.0 0 1 746.51 214.68
  L 746.51 195.85
  A 0.35 0.34 73.0 0 0 745.97 195.56
  Z
  M 746.4484 110.9050
  A 63.74 60.77 -0.4 0 0 682.2857 50.5815
  A 63.74 60.77 -0.4 0 0 618.9716 111.7950
  A 63.74 60.77 -0.4 0 0 683.1343 172.1185
  A 63.74 60.77 -0.4 0 0 746.4484 110.9050
  Z"
/>
<path fill="#38b000" d="
  M 1172.51 77.84
  A 0.24 0.24 0.0 0 1 1172.42 78.17
  L 1057.44 144.56
  A 0.48 0.48 0.0 0 1 1056.79 144.39
  L 1035.39 107.33
  A 0.48 0.47 60.8 0 1 1035.57 106.68
  L 1108.47 64.59
  A 0.42 0.41 48.6 0 0 1108.51 63.90
  Q 1097.47 55.49 1083.75 52.26
  Q 1063.52 47.50 1044.38 55.39
  C 1023.84 63.85 1010.65 78.27 1006.14 100.89
  Q 1003.29 115.16 1007.24 127.50
  Q 1016.92 157.75 1046.51 168.25
  C 1071.39 177.09 1098.68 170.53 1116.54 151.35
  Q 1126.34 140.82 1130.18 127.37
  A 0.48 0.46 -74.3 0 1 1130.75 127.04
  L 1171.65 138.11
  A 0.61 0.60 -74.2 0 1 1172.07 138.87
  Q 1160.36 177.57 1126.55 198.99
  Q 1100.05 215.77 1069.26 215.74
  Q 1057.19 215.73 1042.49 212.18
  C 1009.68 204.25 984.36 183.76 970.32 152.69
  Q 960.43 130.81 961.57 107.98
  C 962.73 84.65 971.33 61.09 987.04 43.33
  Q 996.85 32.24 1008.07 25.20
  Q 1019.68 17.93 1033.11 13.11
  C 1074.79 -1.83 1125.59 11.64 1153.12 46.90
  C 1160.28 56.07 1165.96 66.86 1172.51 77.84
  Z"
/>
<path fill="#38b000" d="
  M 88.36 151.83
  A 0.38 0.38 0.0 0 0 89.02 151.96
  Q 109.17 127.37 118.74 98.52
  C 128.50 69.11 131.32 37.49 131.58 7.89
  A 0.66 0.65 -89.6 0 1 132.23 7.24
  L 174.07 7.24
  A 0.85 0.84 89.7 0 1 174.91 8.08
  Q 175.09 40.07 170.21 70.74
  C 166.35 95.02 159.24 119.06 148.12 140.82
  Q 131.90 172.55 105.66 197.67
  Q 96.55 206.38 85.94 214.95
  A 1.35 1.32 -64.0 0 1 85.10 215.25
  L 62.22 215.25
  A 0.80 0.79 -8.4 0 1 61.46 214.69
  L 0.13 7.80
  A 0.43 0.42 -8.5 0 1 0.54 7.25
  L 44.93 7.25
  A 0.76 0.76 0.0 0 1 45.66 7.80
  L 88.36 151.83
  Z"
/>
<path fill="#ed7164" d="
  M 360.34 110.76
  A 0.21 0.21 0.0 0 1 360.55 110.97
  L 360.55 111.09
  A 53.96 53.95 -0.0 0 1 306.59 165.04
  L 306.13 165.04
  A 53.96 53.95 -0.0 0 1 252.17 111.09
  L 252.17 110.97
  A 0.21 0.21 0.0 0 1 252.38 110.76
  L 360.34 110.76
  Z"
/>
</svg>
